<svg xmlns="http://www.w3.org/2000/svg" xmlns:xlink="http://www.w3.org/1999/xlink" viewBox="0,0,256,256" width="32px" height="32px"><g fill="#444444" fill-rule="nonzero" stroke="none" stroke-width="1" stroke-linecap="butt" stroke-linejoin="miter" stroke-miterlimit="10" stroke-dasharray="" stroke-dashoffset="0" font-family="none" font-weight="none" font-size="none" text-anchor="none" style="mix-blend-mode: normal"><g transform="scale(8,8)"><path d="M8.78125,4l1.65625,5.4375v3.53125h1.375v-3.71875l1.625,-5.25h-1.40625l-0.875,3.59375h-0.0625l-0.90625,-3.59375zM15.21875,6.1875c-0.55859,0 -1.01172,0.16406 -1.34375,0.46875c-0.33203,0.30078 -0.5,0.70703 -0.5,1.21875v3.4375c0,0.5625 0.17578,1.01172 0.5,1.34375c0.32422,0.33203 0.74219,0.5 1.28125,0.5c0.55859,0 0.99219,-0.17969 1.3125,-0.5c0.31641,-0.32422 0.46875,-0.74609 0.46875,-1.3125v-3.4375c0,-0.50391 -0.14453,-0.92969 -0.46875,-1.25c-0.32422,-0.32031 -0.73828,-0.46875 -1.25,-0.46875zM18,6.34375v5.5625c0,0.39844 0.07422,0.67969 0.21875,0.875c0.14453,0.19531 0.37109,0.28125 0.65625,0.28125c0.23047,0 0.44531,-0.04687 0.6875,-0.1875c0.24609,-0.14062 0.49219,-0.35547 0.71875,-0.625v0.71875h1.21875v-6.625h-1.21875v5.03125c-0.11328,0.14453 -0.23437,0.28125 -0.375,0.375c-0.13672,0.09375 -0.25391,0.125 -0.34375,0.125c-0.11328,0 -0.19922,-0.02344 -0.25,-0.09375c-0.05469,-0.07031 -0.09375,-0.19141 -0.09375,-0.34375v-5.09375zM15.15625,7.34375c0.16406,0 0.30859,0.03516 0.40625,0.125c0.10156,0.08984 0.125,0.19922 0.125,0.34375v3.625c0,0.17969 -0.02734,0.30859 -0.125,0.40625c-0.10156,0.10156 -0.23828,0.15625 -0.40625,0.15625c-0.16016,0 -0.28906,-0.05859 -0.375,-0.15625c-0.08984,-0.10156 -0.125,-0.22656 -0.125,-0.40625v-3.625c0,-0.14453 0.03125,-0.25391 0.125,-0.34375c0.09375,-0.08984 0.22266,-0.125 0.375,-0.125zM15,14.53125c-2.375,-0.00391 -4.69141,0.02734 -6.96875,0.125c-1.58984,0 -2.90625,1.30078 -2.90625,2.875c-0.09375,1.24609 -0.12891,2.5 -0.125,3.75c-0.00391,1.24609 0.02734,2.46875 0.125,3.71875c0,1.57813 1.3125,2.875 2.90625,2.875c2.27734,0.09375 4.59375,0.12891 6.96875,0.125c2.37891,0.00391 4.69531,-0.03125 6.96875,-0.125c1.59375,0 2.90625,-1.29687 2.90625,-2.875c0.09375,-1.25 0.12891,-2.47266 0.125,-3.71875c0.00391,-1.25 -0.02734,-2.50391 -0.125,-3.75c0,-1.57422 -1.3125,-2.875 -2.90625,-2.875c-2.27344,-0.09375 -4.58984,-0.12891 -6.96875,-0.125zM6.5625,16.59375h4.1875c0.07422,0 0.125,0.05078 0.125,0.125v1.28125c0,0.07422 -0.05078,0.125 -0.125,0.125h-1.28125v7.4375c0,0.07422 -0.05078,0.125 -0.125,0.125h-1.375c-0.07422,0 -0.15625,-0.05078 -0.15625,-0.125v-7.4375h-1.25c-0.07422,0 -0.15625,-0.05078 -0.15625,-0.125v-1.28125c0,-0.07422 0.08203,-0.125 0.15625,-0.125zM15.375,16.59375h1.21875c0.07422,0 0.15625,0.05078 0.15625,0.125v2.5c0.10156,-0.09375 0.20313,-0.15625 0.3125,-0.21875c0.20703,-0.11328 0.41406,-0.1875 0.625,-0.1875c0.42969,0 0.73828,0.15234 0.96875,0.46875c0.21875,0.30469 0.34375,0.75391 0.34375,1.3125v3.625c0,0.49609 -0.10156,0.88672 -0.3125,1.15625c-0.21875,0.28125 -0.53516,0.40625 -0.9375,0.40625c-0.25391,0 -0.48047,-0.05078 -0.6875,-0.15625c-0.10937,-0.05859 -0.21094,-0.12891 -0.3125,-0.21875v0.15625c0,0.07422 -0.08203,0.125 -0.15625,0.125h-1.21875c-0.07422,0 -0.125,-0.05078 -0.125,-0.125v-8.84375c0,-0.07422 0.05078,-0.125 0.125,-0.125zM21.625,18.71875c0.59375,0 1.05078,0.20313 1.375,0.5625c0.32031,0.35547 0.5,0.84766 0.5,1.5v1.6875c0,0.07422 -0.08203,0.125 -0.15625,0.125h-2.1875v1.09375c0,0.39844 0.05078,0.55078 0.09375,0.625c0.03516,0.05859 0.12109,0.15625 0.3125,0.15625c0.15234,0 0.25781,-0.05078 0.3125,-0.125c0.02734,-0.03906 0.09375,-0.17969 0.09375,-0.65625v-0.46875c0,-0.07422 0.05078,-0.125 0.125,-0.125h1.25c0.07422,0 0.125,0.05078 0.125,0.125v0.5c0,0.70313 -0.14453,1.23047 -0.46875,1.59375c-0.32812,0.36719 -0.82422,0.5625 -1.46875,0.5625c-0.58203,0 -1.07031,-0.20312 -1.40625,-0.59375c-0.33203,-0.38281 -0.5,-0.90234 -0.5,-1.5625v-2.9375c0,-0.60156 0.19531,-1.08594 0.5625,-1.46875c0.36719,-0.38281 0.85547,-0.59375 1.4375,-0.59375zM10.71875,18.90625h1.21875c0.07422,0 0.15625,0.05078 0.15625,0.125v5c0,0.16406 0.01172,0.22656 0.03125,0.25c0.00781,0.01172 0.02344,0.0625 0.125,0.0625c0.03516,0 0.13672,-0.02734 0.28125,-0.125c0.11719,-0.07812 0.21875,-0.16797 0.3125,-0.28125v-4.90625c0,-0.07422 0.05078,-0.125 0.125,-0.125h1.21875c0.07422,0 0.125,0.05078 0.125,0.125v6.53125h0.03125c0,0.07422 -0.08203,0.125 -0.15625,0.125h-1.21875c-0.07422,0 -0.125,-0.05078 -0.125,-0.125v-0.375c-0.16016,0.15625 -0.33203,0.28125 -0.5,0.375c-0.26562,0.15234 -0.52344,0.21875 -0.78125,0.21875c-0.32422,0 -0.55078,-0.11328 -0.71875,-0.34375c-0.16016,-0.21875 -0.25,-0.52344 -0.25,-0.9375v-5.46875c0,-0.07422 0.05078,-0.125 0.125,-0.125zM17.1875,20.125c-0.08203,-0.01562 -0.17969,0.01172 -0.28125,0.0625c-0.05859,0.02734 -0.09766,0.06641 -0.15625,0.125v3.96875c0.07422,0.07422 0.12109,0.12109 0.1875,0.15625c0.07422,0.03516 0.16797,0.03125 0.25,0.03125c0.15625,0 0.20313,-0.04297 0.21875,-0.0625c0.03906,-0.04687 0.0625,-0.15625 0.0625,-0.375v-3.375c0,-0.1875 -0.02734,-0.31641 -0.09375,-0.40625c-0.04297,-0.05859 -0.10547,-0.10937 -0.1875,-0.125zM21.5625,20.15625c-0.14453,0 -0.25391,0.04297 -0.3125,0.125c-0.04297,0.05859 -0.09375,0.19531 -0.09375,0.5v0.53125h0.8125v-0.53125c0,-0.30078 -0.07812,-0.43359 -0.125,-0.5c-0.05469,-0.07812 -0.14062,-0.125 -0.28125,-0.125z"></path></g></g></svg>